<svg width="32" height="32" viewBox="0 0 32 32" fill="none" xmlns="http://www.w3.org/2000/svg">
<path d="M0 10.624C0 1.87514 1.87514 0 10.624 0H21.376C30.1249 0 32 1.87514 32 10.624V21.376C32 30.1249 30.1249 32 21.376 32H10.624C1.87514 32 0 30.1249 0 21.376V10.624Z" fill="#FF5400"/>
<path d="M8.341 17H7.221V14.592C7.221 14.41 7.123 14.312 6.906 14.312C6.668 14.312 6.465 14.424 6.388 14.494V17H5.268V14.592C5.268 14.41 5.17 14.312 4.953 14.312C4.715 14.312 4.512 14.424 4.435 14.494V17H3.315V13.5H3.987L4.127 13.752C4.379 13.535 4.862 13.402 5.226 13.402C5.695 13.402 5.926 13.528 6.038 13.689C6.29 13.5 6.752 13.402 7.172 13.402C8.082 13.402 8.341 13.948 8.341 14.578V17ZM10.7401 14.774V14.55C10.7401 14.389 10.6281 14.305 10.3271 14.305C9.88614 14.305 9.37514 14.438 9.06714 14.571V13.633C9.30514 13.528 9.83014 13.402 10.3271 13.402C11.5871 13.402 11.8251 13.941 11.8251 14.725V17H11.1531L10.9991 16.734C10.7471 16.958 10.3901 17.098 9.97014 17.098C9.08114 17.098 8.78014 16.51 8.78014 15.985C8.78014 15.04 9.47314 14.9 10.1031 14.837L10.7401 14.774ZM10.7401 15.383L10.2711 15.446C9.95614 15.488 9.83014 15.642 9.83014 15.915C9.83014 16.174 9.99814 16.328 10.2361 16.328C10.4391 16.328 10.6281 16.272 10.7401 16.16V15.383ZM14.6325 16.153V17.028C14.4785 17.07 14.2125 17.098 14.0585 17.098C13.0785 17.098 12.7075 16.685 12.7075 15.859V14.431H12.1405V13.689L12.7075 13.535V12.814L13.8275 12.513V13.5H14.6955V14.431H13.8275V15.768C13.8275 16.041 13.9325 16.195 14.2895 16.195C14.4365 16.195 14.5765 16.167 14.6325 16.153ZM18.158 15.621H16.114C16.086 16.076 16.324 16.209 16.87 16.209C17.395 16.209 17.787 16.104 18.039 15.978V16.853C17.633 17.021 17.143 17.098 16.723 17.098C15.568 17.098 15.008 16.51 15.008 15.25C15.008 13.99 15.561 13.402 16.646 13.402C18.144 13.402 18.249 14.522 18.158 15.621ZM16.66 14.242C16.282 14.242 16.114 14.494 16.114 14.935H17.108C17.171 14.55 17.087 14.242 16.66 14.242ZM20.9145 13.451V14.354C20.8585 14.34 20.7185 14.326 20.5715 14.326C20.2285 14.326 19.9205 14.445 19.8295 14.529V17H18.7095V13.5H19.3815L19.5215 13.752C19.6965 13.584 20.0745 13.402 20.5995 13.402C20.7395 13.402 20.8655 13.43 20.9145 13.451ZM22.7354 16.125V17.028C22.7354 17.028 22.5884 17.056 22.4134 17.056C21.8114 17.056 21.3354 16.748 21.3354 16.069V13.5H22.4484V15.915C22.4484 16.048 22.5114 16.125 22.7354 16.125ZM21.2304 12.485C21.2304 12.114 21.5174 11.82 21.8954 11.82C22.2664 11.82 22.5604 12.114 22.5604 12.485C22.5604 12.863 22.2664 13.15 21.8954 13.15C21.5174 13.15 21.2304 12.863 21.2304 12.485ZM24.7331 17.098C23.4381 17.098 23.0881 16.342 23.0881 15.25C23.0881 14.158 23.4381 13.402 24.7331 13.402C26.0281 13.402 26.3781 14.158 26.3781 15.25C26.3781 16.342 26.0281 17.098 24.7331 17.098ZM24.7331 14.298C24.3481 14.298 24.2081 14.55 24.2081 15.25C24.2081 15.95 24.3481 16.202 24.7331 16.202C25.1181 16.202 25.2581 15.95 25.2581 15.25C25.2581 14.55 25.1181 14.298 24.7331 14.298ZM26.7248 16.433C26.7248 16.062 27.0118 15.768 27.3898 15.768C27.7608 15.768 28.0548 16.062 28.0548 16.433C28.0548 16.811 27.7608 17.098 27.3898 17.098C27.0118 17.098 26.7248 16.811 26.7248 16.433Z" fill="#FFF5D2"/>
</svg>
